<?xml version="1.0" encoding="utf-8"?><svg version="1.1" id="Layer_1" xmlns="http://www.w3.org/2000/svg" xmlns:xlink="http://www.w3.org/1999/xlink" x="0px" y="0px" viewBox="0 0 102.73 122.88" style="enable-background:new 0 0 102.73 122.88" xml:space="preserve"><style type="text/css"><![CDATA[
	.st0{fill-rule:evenodd;clip-rule:evenodd;}
]]></style><g><path class="st0" d="M31.25,37c-1.12,0.04-1.96,0.27-2.54,0.66c-0.33,0.22-0.57,0.5-0.73,0.84c-0.17,0.37-0.25,0.83-0.24,1.35 c0.04,1.53,0.85,3.53,2.4,5.83l0.02,0.03l5.03,8c2.02,3.21,4.13,6.48,6.76,8.88c2.53,2.31,5.59,3.87,9.65,3.88 c4.39,0.01,7.6-1.61,10.21-4.05c2.71-2.54,4.85-6.02,6.96-9.49l5.67-9.33c1.06-2.41,1.44-4.02,1.2-4.97 c-0.14-0.56-0.76-0.84-1.82-0.89c-0.22-0.01-0.46-0.01-0.69-0.01c-0.25,0.01-0.52,0.02-0.79,0.05c-0.15,0.01-0.3,0-0.44-0.03 c-0.5,0.03-1.02-0.01-1.55-0.08l1.94-8.59c-14.4,2.27-25.17-8.42-40.38-2.14L33,37.06C32.36,37.1,31.78,37.08,31.25,37L31.25,37 L31.25,37L31.25,37L31.25,37z M35.45,98.09h3.21c2.07,0,3.47,0.1,4.2,0.29c0.73,0.19,1.29,0.5,1.67,0.94 c0.38,0.43,0.62,0.92,0.71,1.45c0.1,0.54,0.14,1.58,0.14,3.15v5.78c0,1.48-0.07,2.47-0.21,2.97c-0.14,0.5-0.38,0.89-0.73,1.17 c-0.35,0.28-0.77,0.48-1.29,0.59c-0.51,0.11-1.28,0.17-2.3,0.17h-5.41V98.09L35.45,98.09z M39.75,100.91v10.87 c0.61,0,0.98-0.13,1.12-0.37c0.14-0.25,0.21-0.92,0.21-2.03v-6.42c0-0.75-0.03-1.23-0.07-1.44c-0.05-0.21-0.15-0.37-0.32-0.46 C40.52,100.96,40.21,100.91,39.75,100.91L39.75,100.91z M47.71,98.09h7.15v3.3H52v3.15h2.67v3.13H52v3.63h3.15v3.3h-7.45V98.09 L47.71,98.09z M67.28,98.09l-2.17,16.5h-6.5l-2.49-16.5h4.53c0.51,4.55,0.88,8.4,1.12,11.54c0.23-3.18,0.48-6,0.71-8.47l0.28-3.08 H67.28L67.28,98.09z M31.66,97.21v3.11h-0.43c-0.39,0-0.69,0.08-0.89,0.25c-0.2,0.17-0.34,0.42-0.42,0.78 c-0.05,0.19-0.07,0.71-0.08,1.56c-0.01,0.85-0.1,1.53-0.27,2.02c-0.13,0.38-0.31,0.68-0.54,0.91c-0.18,0.17-0.47,0.34-0.88,0.52 c0.42,0.2,0.74,0.4,0.94,0.62c0.21,0.21,0.38,0.54,0.53,0.97c0.15,0.43,0.22,1.13,0.22,2.08c0,0.86,0.05,1.41,0.13,1.67 c0.09,0.26,0.23,0.45,0.44,0.55c0.21,0.11,0.62,0.16,1.24,0.16v3.07h-1.19c-1.23,0-2.11-0.14-2.63-0.41 c-0.52-0.27-0.89-0.66-1.11-1.18c-0.22-0.52-0.33-1.29-0.33-2.33c0-0.23,0.01-0.46,0.02-0.68c0.01-0.14,0.01-0.28,0.01-0.43 c0-0.74-0.07-1.26-0.2-1.57c-0.13-0.31-0.32-0.54-0.58-0.68c-0.25-0.14-0.61-0.21-1.09-0.23v-3.25c0.49,0,0.86-0.08,1.1-0.23 s0.43-0.39,0.56-0.7c0.13-0.31,0.19-0.85,0.19-1.59v-0.32c-0.01-0.15-0.01-0.29-0.01-0.44c0-1.12,0.09-1.94,0.28-2.43 c0.19-0.5,0.44-0.89,0.77-1.15c0.25-0.21,0.58-0.36,1.01-0.46c0.56-0.13,1.2-0.2,1.92-0.2H31.66L31.66,97.21z M71.07,97.21v3.11 h0.42c0.39,0,0.69,0.08,0.89,0.25c0.2,0.17,0.34,0.42,0.42,0.78c0.05,0.19,0.07,0.71,0.08,1.56c0.01,0.85,0.1,1.53,0.27,2.02 c0.13,0.38,0.31,0.68,0.54,0.91c0.18,0.17,0.47,0.34,0.88,0.52c-0.42,0.2-0.74,0.4-0.94,0.62c-0.21,0.21-0.38,0.54-0.53,0.97 c-0.15,0.43-0.22,1.13-0.22,2.08c0,0.86-0.04,1.41-0.13,1.67c-0.09,0.26-0.23,0.45-0.44,0.55c-0.21,0.11-0.62,0.16-1.24,0.16v3.07 h1.19c1.24,0,2.11-0.14,2.63-0.41c0.52-0.27,0.89-0.66,1.11-1.18c0.22-0.52,0.33-1.29,0.33-2.33c0-0.23-0.01-0.46-0.02-0.68 c-0.01-0.14-0.01-0.28-0.01-0.43c0-0.74,0.07-1.26,0.2-1.57c0.13-0.31,0.32-0.54,0.58-0.68c0.25-0.14,0.61-0.21,1.09-0.23v-3.25 c-0.49,0-0.86-0.08-1.1-0.23c-0.25-0.15-0.43-0.39-0.56-0.7c-0.13-0.31-0.19-0.85-0.19-1.59v-0.32c0.01-0.15,0.01-0.29,0.01-0.44 c0-1.12-0.09-1.94-0.28-2.43c-0.19-0.5-0.45-0.89-0.77-1.15c-0.25-0.21-0.58-0.36-1.01-0.46c-0.56-0.13-1.2-0.2-1.92-0.2H71.07 L71.07,97.21z M75.72,35.19L75.72,35.19L75.72,35.19c0.21-8.77,1.82-17.63-4.42-24.82C66.86,5.25,55.28,0.42,47.77,0.01 c-3.17-0.17-1.96,2.41-5.09,3.49c-6.46,2.23-12.11,6.97-13.96,13.55c-0.3,1.08-0.51,2.17-0.62,3.26 c-0.21,4.58-0.09,10.04,0.24,14.38c-0.45,0.17-0.86,0.38-1.22,0.62c-0.78,0.52-1.35,1.2-1.73,2.01c-0.36,0.77-0.52,1.65-0.49,2.62 c0.06,2.06,1.01,4.56,2.85,7.31l5.03,8c1.76,2.8,3.6,5.65,5.84,8.06c-0.11,0.32,0.01-0.03-0.06,0.18 c-0.62,1.88-1.66,5.02-2.59,6.78c-6.11,4-20.1,5.03-25.53,8.06c-14.82,8.26-9.47,25.29-9.65,39.35c0.29,3.14,2.07,4.94,5.57,5.21 h3.79l-4.15-31.5c-0.32-2.45,1.42-4.46,3.56-4.46h19.47h22.98c-0.79-5.1-13.98-10.02-14.45-13.86c0.13-0.09,0.25-0.21,0.35-0.35 c1.12-1.56,2.28-4.81,3.08-7.18c2.83,2.29,6.23,3.79,10.6,3.8c3.92,0.01,7.05-1.08,9.68-2.85c0.26,0.37,0.52,0.76,0.8,1.17 c1.25,1.84,2.71,3.97,4.07,5.49c-0.29,4.37-11.73,4.42-13.03,13.78h40.73c2.14,0,3.89,2.01,3.56,4.46l-4.15,31.5h3.79 c3.5-0.27,5.28-2.07,5.58-5.21c-0.99-13.29,3.99-31.75-9.65-39.35c-5.36-2.99-19.06-4.03-25.29-7.9c-1.05-1.3-2.18-2.96-3.18-4.42 c-0.32-0.48-0.63-0.93-0.92-1.34l0.15-0.13c2.99-2.8,5.24-6.45,7.45-10.09L76.92,45c0.03-0.05,0.06-0.11,0.09-0.16l0,0 c1.34-3.05,1.78-5.29,1.38-6.87C78.01,36.5,77.13,35.62,75.72,35.19L75.72,35.19L75.72,35.19z"/></g></svg>